<mxfile host="app.diagrams.net" modified="2023-10-19T09:38:58.256Z" agent="Mozilla/5.0 (Macintosh; Intel Mac OS X 10_15_7) AppleWebKit/537.36 (KHTML, like Gecko) Chrome/117.0.0.0 Safari/537.36" etag="-GRJ3-uTdQX6rzNrz1CM" version="22.0.5" type="github">
  <diagram name="第 1 页" id="RtVHch0WJ_2LDpSuCrDi">
    <mxGraphModel dx="1061" dy="504" grid="1" gridSize="10" guides="1" tooltips="1" connect="1" arrows="1" fold="1" page="1" pageScale="1" pageWidth="827" pageHeight="1169" math="0" shadow="0">
      <root>
        <mxCell id="0" />
        <mxCell id="1" parent="0" />
        <mxCell id="N18l0JLpeIEEWhaoZLQ6-1" value="zhivago-mapper-${regionid}.yaml" style="shape=note;whiteSpace=wrap;html=1;backgroundOutline=1;darkOpacity=0.05;size=13;" vertex="1" parent="1">
          <mxGeometry x="120" y="340" width="190" height="40" as="geometry" />
        </mxCell>
        <mxCell id="N18l0JLpeIEEWhaoZLQ6-3" value="" style="whiteSpace=wrap;html=1;aspect=fixed;" vertex="1" parent="1">
          <mxGeometry x="470" y="330" width="270" height="270" as="geometry" />
        </mxCell>
        <mxCell id="N18l0JLpeIEEWhaoZLQ6-5" value="vmstorage" style="shape=cylinder3;whiteSpace=wrap;html=1;boundedLbl=1;backgroundOutline=1;size=6.370370370370267;" vertex="1" parent="1">
          <mxGeometry x="760" y="460" width="60" height="50" as="geometry" />
        </mxCell>
        <mxCell id="N18l0JLpeIEEWhaoZLQ6-9" value="" style="rounded=0;whiteSpace=wrap;html=1;dashed=1;dashPattern=8 8;" vertex="1" parent="1">
          <mxGeometry x="185" y="530" width="200" height="210" as="geometry" />
        </mxCell>
        <mxCell id="N18l0JLpeIEEWhaoZLQ6-13" value="didimonitor" style="shape=hexagon;perimeter=hexagonPerimeter2;whiteSpace=wrap;html=1;fixedSize=1;" vertex="1" parent="1">
          <mxGeometry x="210" y="560" width="150" height="30" as="geometry" />
        </mxCell>
        <mxCell id="N18l0JLpeIEEWhaoZLQ6-14" value="zhivago_irmas" style="shape=hexagon;perimeter=hexagonPerimeter2;whiteSpace=wrap;html=1;fixedSize=1;" vertex="1" parent="1">
          <mxGeometry x="210" y="650" width="150" height="30" as="geometry" />
        </mxCell>
        <mxCell id="N18l0JLpeIEEWhaoZLQ6-18" value="" style="group" vertex="1" connectable="0" parent="1">
          <mxGeometry x="210" y="690" width="150" height="40" as="geometry" />
        </mxCell>
        <mxCell id="N18l0JLpeIEEWhaoZLQ6-17" value="" style="shape=hexagon;perimeter=hexagonPerimeter2;whiteSpace=wrap;html=1;fixedSize=1;" vertex="1" parent="N18l0JLpeIEEWhaoZLQ6-18">
          <mxGeometry y="10" width="150" height="30" as="geometry" />
        </mxCell>
        <mxCell id="N18l0JLpeIEEWhaoZLQ6-16" value="zhivago_irmas-${regionid}" style="shape=hexagon;perimeter=hexagonPerimeter2;whiteSpace=wrap;html=1;fixedSize=1;" vertex="1" parent="N18l0JLpeIEEWhaoZLQ6-18">
          <mxGeometry width="150" height="30" as="geometry" />
        </mxCell>
        <mxCell id="N18l0JLpeIEEWhaoZLQ6-24" value="" style="group" vertex="1" connectable="0" parent="1">
          <mxGeometry x="210" y="600" width="150" height="40" as="geometry" />
        </mxCell>
        <mxCell id="N18l0JLpeIEEWhaoZLQ6-25" style="edgeStyle=orthogonalEdgeStyle;rounded=0;orthogonalLoop=1;jettySize=auto;html=1;exitX=1;exitY=0.75;exitDx=0;exitDy=0;entryX=1;entryY=0.25;entryDx=0;entryDy=0;" edge="1" parent="N18l0JLpeIEEWhaoZLQ6-24" source="N18l0JLpeIEEWhaoZLQ6-21" target="N18l0JLpeIEEWhaoZLQ6-22">
          <mxGeometry relative="1" as="geometry" />
        </mxCell>
        <mxCell id="N18l0JLpeIEEWhaoZLQ6-21" value="" style="shape=hexagon;perimeter=hexagonPerimeter2;whiteSpace=wrap;html=1;fixedSize=1;" vertex="1" parent="N18l0JLpeIEEWhaoZLQ6-24">
          <mxGeometry y="10" width="150" height="30" as="geometry" />
        </mxCell>
        <mxCell id="N18l0JLpeIEEWhaoZLQ6-22" value="didimonitor-${regionid}" style="shape=hexagon;perimeter=hexagonPerimeter2;whiteSpace=wrap;html=1;fixedSize=1;" vertex="1" parent="N18l0JLpeIEEWhaoZLQ6-24">
          <mxGeometry width="150" height="30" as="geometry" />
        </mxCell>
        <mxCell id="N18l0JLpeIEEWhaoZLQ6-26" value="Kafka" style="text;html=1;strokeColor=none;fillColor=none;align=center;verticalAlign=middle;whiteSpace=wrap;rounded=0;" vertex="1" parent="1">
          <mxGeometry x="255" y="530" width="60" height="30" as="geometry" />
        </mxCell>
      </root>
    </mxGraphModel>
  </diagram>
</mxfile>
